<svg width="30" height="33" viewBox="0 0 30 33" fill="none" xmlns="http://www.w3.org/2000/svg">
<path d="M29.1594 13.8377C29.2945 13.0629 29.3788 12.2133 29.4 11.2606C29.3919 7.17566 27.2345 5.73021 26.8194 5.05257C27.4307 1.95744 26.7181 0.549566 26.3867 0.0676109C25.1642 -0.325676 22.1336 1.08268 20.4777 2.0741C17.7779 1.35779 12.0725 1.4277 9.93287 2.25951C5.98515 -0.302647 3.89719 0.0880199 3.89719 0.0880199C3.89719 0.0880199 2.54733 2.28199 3.54035 5.49164C2.24146 6.99191 1.27332 8.05263 1.27332 10.8662C1.27332 11.54 1.31949 12.1768 1.39784 12.7894C2.51645 18.1204 7.17686 20.4203 11.7547 20.8169C11.0659 21.2913 10.2388 22.1892 10.1244 23.2295C9.25881 23.7368 7.51765 23.9045 6.16369 23.5186C4.26659 22.9753 3.54035 19.5702 0.69937 20.0559C0.0846508 20.1602 0.206819 20.5277 0.739155 20.841C1.60468 21.3498 2.41984 21.9824 3.04818 23.3359C3.53076 24.3751 4.54576 26.2306 7.75484 26.2306C9.02878 26.2306 9.92108 26.0941 9.92108 26.0941C9.92108 26.0941 9.94534 28.7422 9.94534 29.775C9.94534 30.9635 8.17566 31.2972 8.17566 31.8674C8.17566 32.0942 8.76139 32.1157 9.23211 32.1157C10.1624 32.1157 12.0979 31.4134 12.0979 30.178C12.0979 29.1964 12.1152 25.8976 12.1152 25.3199C12.1152 24.0576 12.8615 23.6557 12.8615 23.6557C12.8615 23.6557 12.9528 30.3939 12.6819 31.2973C12.3641 32.3597 11.7885 32.2087 11.7885 32.6815C11.7885 33.3871 14.1154 32.854 14.8872 31.3096C15.4843 30.1034 15.2169 23.4955 15.2169 23.4955L15.8394 23.4833C15.8394 23.4833 15.8465 26.5096 15.8251 27.8922C15.8026 29.3242 15.6396 31.1345 16.578 31.9889C17.194 32.5509 19.0809 33.5369 19.0809 32.6358C19.0809 32.1136 17.7595 31.682 17.7595 30.2672V23.7496C18.5623 23.7496 18.7282 25.8919 18.7282 25.8919L19.0176 29.8722C19.0176 29.8722 18.8254 31.3246 20.7486 31.9307C21.4275 32.1463 22.8799 32.2049 22.948 31.8431C23.0163 31.4804 21.1992 30.9441 21.1819 29.82C21.1726 29.1353 21.2158 28.7346 21.2158 25.7565C21.2158 22.7801 20.7746 21.6791 19.2374 20.8016C23.6952 20.387 28.3253 18.5825 29.1594 13.8377Z" fill="white"/>
</svg>
